<svg width="122" height="235" viewBox="0 0 122 235" fill="none" xmlns="http://www.w3.org/2000/svg">
<path d="M5.7852 161.729C5.59887 160.854 5.46119 159.768 5.37216 158.471C5.28313 157.174 5.18599 155.792 5.08076 154.325C5.01606 152.923 4.89868 151.509 4.72861 150.082C4.59906 148.721 4.41276 147.485 4.16972 146.374C2.15253 136.365 1.0756 125.407 0.938936 113.501C0.802269 101.594 1.57743 89.3438 3.26444 76.7489C4.97578 64.0486 7.83786 52.9735 11.8507 43.5235C15.7581 34.0492 21.0677 25.5923 27.7793 18.1526C28.7438 17.099 29.6517 16.1711 30.5028 15.3688C31.2485 14.5421 32.0672 13.7601 32.9588 13.0226C33.7856 12.3257 34.7501 11.6328 35.8525 10.944C36.8494 10.2308 38.0936 9.4083 39.585 8.47638C41.7005 7.24463 43.8241 6.09798 45.9558 5.03643C48.047 3.91004 49.6599 3.17264 50.7947 2.82424C52.3995 2.36241 54.1826 1.96949 56.144 1.64547C58.0649 1.25662 60.0142 0.985292 61.9918 0.831485C63.9694 0.677677 65.8579 0.669751 67.6572 0.807703C69.4159 0.880814 70.9477 1.09573 72.2526 1.45246C76.5643 2.72534 80.7138 4.82086 84.7012 7.73901C88.7128 10.5518 92.4691 14.1102 95.9701 18.4143C99.471 22.7183 102.688 27.6505 105.622 33.2107C108.596 38.8358 111.12 44.9675 113.194 51.6056C114.029 54.2398 114.758 56.8496 115.382 59.4352C116.111 62.045 116.731 64.7683 117.241 67.6051C117.751 70.4419 118.245 73.4691 118.723 76.6868C119.136 79.945 119.549 83.5639 119.962 87.5435C120.723 94.8218 121.128 102.323 121.176 110.047C121.224 117.771 120.846 125.535 120.043 133.34C119.175 141.186 117.906 148.967 116.236 156.682C114.5 164.439 112.222 171.903 109.401 179.076C106.62 186.313 103.289 193.173 99.4058 199.657C95.4986 206.246 90.9835 212.223 85.8607 217.588C84.1099 219.403 81.9862 221.271 79.4897 223.192C76.9932 225.113 74.4481 226.883 71.8544 228.504C69.3903 230.044 67.0074 231.352 64.7055 232.43C62.4441 233.573 60.5029 234.29 58.8819 234.581C55.2346 235.238 51.8346 235.063 48.6819 234.058C45.5048 233.158 42.5142 231.691 39.7101 229.656C36.9465 227.686 34.3977 225.267 32.0638 222.397C29.665 219.568 27.4729 216.565 25.4875 213.388C23.5426 210.276 21.7801 207.094 20.1999 203.844C18.5954 200.699 17.1855 197.793 15.97 195.127C14.8922 192.825 13.855 190.227 12.8584 187.333C11.7969 184.48 10.8124 181.534 9.90498 178.495C8.99751 175.455 8.18325 172.493 7.46218 169.607C6.74111 166.722 6.18212 164.096 5.7852 161.729ZM6.7985 116.601C6.91199 116.35 7.16327 116.103 7.55233 115.86C8.00624 115.576 8.52901 115.475 9.12066 115.556C9.68799 115.742 10.1986 116.054 10.6524 116.492C11.1468 116.995 11.5317 117.611 11.8072 118.34C12.1232 119.134 12.2569 119.998 12.2081 120.93C11.5835 127 11.279 133.367 11.2945 140.029C11.2858 146.797 11.7147 153.471 12.5813 160.052C13.4236 166.739 14.813 173.219 16.7495 179.492C18.7265 185.831 21.356 191.626 24.638 196.878C25.1243 197.656 25.5983 198.487 26.0602 199.371C26.5626 200.319 26.9718 201.19 27.2878 201.985C27.6444 202.844 27.855 203.614 27.9198 204.294C28.0251 205.04 27.9035 205.567 27.555 205.875C27.3118 206.207 27.6845 207.237 28.6731 208.963C29.6375 210.795 30.9138 212.837 32.5022 215.091C34.0905 217.344 35.7761 219.537 37.559 221.668C39.3824 223.865 40.9587 225.45 42.2878 226.422C44.9217 228.473 47.4827 229.758 49.9709 230.277C52.4996 230.861 55.0324 230.946 57.5692 230.533C60.0413 230.16 62.5053 229.342 64.9612 228.078C67.3928 226.919 69.8406 225.57 72.3046 224.03C73.6015 223.22 74.8254 222.365 75.9764 221.465C77.1679 220.631 78.2743 219.804 79.2956 218.985C89.5978 209.933 97.8862 198.307 104.161 184.108C110.411 170.014 114.651 153.209 116.882 133.693C117.685 126.609 118.14 119.473 118.246 112.284C118.287 105.135 118.008 98.0513 117.409 91.0324C116.785 84.1189 115.838 77.4079 114.566 70.8995C113.294 64.3911 111.714 58.2555 109.826 52.4928C108.003 46.6894 105.848 41.3643 103.36 36.5173C100.978 31.6947 98.344 27.4799 95.459 23.8729C91.877 19.4392 88.1167 15.6579 84.178 12.529C80.2636 9.29475 76.1627 6.98851 71.8753 5.61027C67.5879 4.23202 63.1222 3.86688 58.478 4.51484C53.8338 5.1628 48.9504 7.08727 43.8278 10.2882C41.7528 11.5848 39.7913 12.9909 37.9432 14.5063C35.9898 15.9974 34.3241 17.444 32.9461 18.846C26.4615 25.7832 21.0953 34.0052 16.8474 43.5119C12.5995 53.0185 9.55914 63.6641 7.72632 75.4485C7.23163 78.5526 6.7815 81.9445 6.37591 85.6241C5.94599 89.4091 5.59307 93.1008 5.31717 96.6994C4.97642 100.338 4.74917 103.726 4.6354 106.863C4.45679 110.04 4.41197 112.638 4.50094 114.656C4.53319 116.439 4.56544 118.222 4.59769 120.005C4.67046 121.853 4.72707 123.17 4.76752 123.956C4.86462 125.699 4.94559 126.55 5.01043 126.509C5.20496 126.388 5.43205 124.803 5.69169 121.756C5.8377 120.402 6.05259 119.231 6.33636 118.242C6.5958 117.359 6.74985 116.812 6.7985 116.601Z" fill="black"/>
</svg>
