<svg width="119" height="234" viewBox="0 0 119 234" fill="none" xmlns="http://www.w3.org/2000/svg">
<path d="M5.13304 74.8992C4.95511 75.7735 4.82606 76.8556 4.74586 78.1454C4.66566 79.4353 4.57798 80.8098 4.48284 82.2691C4.42709 83.6629 4.31974 85.0702 4.16078 86.4911C4.0412 87.8465 3.86528 89.0789 3.63302 90.1882C1.70971 100.183 0.713697 111.092 0.64503 122.914C0.576346 134.737 1.40379 146.875 3.12738 159.329C4.87539 171.886 7.74303 182.797 11.7303 192.062C15.6143 201.353 20.8678 209.594 27.4907 216.785C28.4425 217.803 29.3379 218.698 30.177 219.47C30.9128 220.269 31.72 221.021 32.5985 221.727C33.4131 222.395 34.3628 223.055 35.4477 223.707C36.4293 224.386 37.654 225.166 39.1217 226.048C41.2032 227.21 43.2921 228.287 45.3885 229.279C47.4455 230.336 49.0313 231.021 50.1461 231.334C51.7225 231.746 53.4733 232.085 55.3987 232.35C57.2847 232.68 59.1978 232.893 61.1381 232.988C63.0784 233.084 64.9304 233.037 66.6942 232.848C68.4187 232.724 69.9197 232.467 71.1974 232.075C75.419 230.686 79.4769 228.486 83.3713 225.474C87.2901 222.566 90.9544 218.925 94.3641 214.551C97.7739 210.177 100.902 205.188 103.748 199.583C106.634 193.913 109.076 187.754 111.073 181.104C111.877 178.465 112.578 175.854 113.176 173.269C113.877 170.657 114.47 167.936 114.954 165.105C115.439 162.274 115.907 159.255 116.358 156.047C116.746 152.801 117.131 149.197 117.514 145.234C118.22 137.987 118.576 130.53 118.581 122.861C118.585 115.192 118.172 107.496 117.342 99.7712C116.447 92.0084 115.16 84.3217 113.48 76.7109C111.735 69.0619 109.46 61.7182 106.654 54.68C103.887 47.5762 100.582 40.8625 96.7387 34.5389C92.8707 28.1115 88.4101 22.3092 83.3567 17.1319C81.6296 15.3806 79.5367 13.5878 77.0778 11.7536C74.619 9.91931 72.1133 8.23532 69.5607 6.70157C67.1358 5.24452 64.7916 4.01441 62.5282 3.01123C60.3042 1.94252 58.3965 1.2869 56.8052 1.04435C53.2247 0.498624 49.8912 0.770362 46.8049 1.85958C43.6941 2.84493 40.7693 4.38802 38.0304 6.48888C35.331 8.52421 32.8447 10.9998 30.5715 13.9157C28.2345 16.7932 26.1012 19.8377 24.1716 23.0492C22.2813 26.1952 20.5702 29.4042 19.0384 32.6763C17.4822 35.8446 16.1153 38.7698 14.938 41.4521C13.8936 43.7683 12.8907 46.377 11.9292 49.2782C10.9039 52.141 9.95457 55.0941 9.0813 58.1375C8.20803 61.1809 7.42574 64.1452 6.73443 67.0303C6.04311 69.9154 5.50932 72.5384 5.13304 74.8992ZM6.37449 119.667C6.48717 119.913 6.73496 120.151 7.11785 120.381C7.56454 120.649 8.07778 120.735 8.65758 120.637C9.21293 120.436 9.71195 120.111 10.1546 119.663C10.6367 119.15 11.0108 118.528 11.277 117.795C11.5825 116.998 11.7089 116.137 11.656 115.213C11.0101 109.205 10.6765 102.895 10.6552 96.2808C10.6095 89.5631 10.9935 82.9252 11.8072 76.3671C12.5966 69.7052 13.9236 63.2325 15.7882 56.9491C17.6923 50.6001 20.2393 44.7713 23.4291 39.4625C23.9017 38.676 24.362 37.8375 24.8102 36.9472C25.2977 35.9913 25.6942 35.1145 25.9998 34.3169C26.3447 33.4537 26.5471 32.6833 26.6069 32.0056C26.706 31.2623 26.5839 30.7429 26.2404 30.4473C26.0001 30.1245 26.36 29.0919 27.32 27.3495C28.2557 25.5032 29.4962 23.4387 31.0415 21.1559C32.5869 18.8732 34.2279 16.6479 35.9647 14.4801C37.7408 12.2469 39.278 10.6282 40.5761 9.62413C43.1479 7.51212 45.6525 6.16252 48.0898 5.57533C50.5665 4.92261 53.0499 4.76456 55.5401 5.10117C57.9665 5.39946 60.3874 6.14047 62.8029 7.32421C65.1939 8.40407 67.6019 9.67253 70.0268 11.1296C71.3031 11.8965 72.5081 12.7097 73.6418 13.5693C74.8149 14.3634 75.9045 15.1519 76.9106 15.9348C87.0636 24.6222 95.2559 35.9226 101.487 49.836C107.694 63.6454 111.945 80.2044 114.24 99.513C115.066 106.521 115.551 113.592 115.695 120.725C115.774 127.82 115.54 134.86 114.991 141.845C114.417 148.726 113.525 155.415 112.313 161.912C111.101 168.41 109.586 174.546 107.766 180.321C106.01 186.135 103.925 191.483 101.512 196.367C99.2022 201.223 96.6425 205.483 93.8329 209.147C90.3444 213.652 86.6774 217.514 82.8319 220.734C79.0108 224.058 75.0017 226.466 70.8046 227.958C66.6076 229.451 62.23 229.943 57.6719 229.434C53.1137 228.925 48.314 227.156 43.2727 224.127C41.2306 222.9 39.2992 221.561 37.4785 220.11C35.5546 218.687 33.9131 217.299 32.554 215.947C26.1565 209.249 20.8487 201.242 16.6306 191.929C12.4125 182.615 9.37242 172.135 7.51029 160.49C7.0081 157.423 6.54803 154.069 6.13008 150.429C5.68768 146.684 5.32131 143.029 5.03098 139.465C4.67684 135.863 4.43537 132.506 4.30659 129.396C4.11399 126.247 4.05577 123.67 4.13194 121.664C4.15379 119.893 4.17563 118.122 4.19748 116.352C4.25869 114.515 4.30698 113.206 4.34233 112.424C4.42799 110.692 4.50273 109.845 4.56654 109.883C4.75799 109.998 4.98939 111.564 5.26076 114.582C5.41138 115.921 5.62854 117.078 5.91226 118.051C6.17154 118.92 6.32562 119.459 6.37449 119.667Z" fill="black"/>
</svg>
