<svg width="140" height="244" viewBox="0 0 140 244" fill="none" xmlns="http://www.w3.org/2000/svg">
<path d="M139.25 77.3426C139.328 78.2525 139.32 79.3807 139.227 80.7272C139.133 82.0737 139.035 83.5086 138.934 85.0319C138.797 86.4876 138.717 87.9563 138.695 89.4381C138.636 90.8522 138.661 92.1364 138.767 93.2907C139.531 103.695 139.101 115.076 137.476 127.433C135.852 139.79 133.154 152.497 129.384 165.555C125.571 178.721 120.712 190.192 114.807 199.967C109.016 209.768 101.807 218.503 93.1791 226.17C91.9415 227.255 90.7862 228.211 89.7132 229.037C88.7546 229.889 87.721 230.694 86.6123 231.452C85.5823 232.169 84.3986 232.88 83.0611 233.586C81.8381 234.318 80.3219 235.162 78.5124 236.117C75.9592 237.379 73.4097 238.552 70.8638 239.636C68.3536 240.788 66.4371 241.541 65.1142 241.893C63.2479 242.36 61.1923 242.753 58.9472 243.074C56.7378 243.462 54.5142 243.728 52.2764 243.872C50.0386 244.016 47.9225 244.009 45.928 243.851C43.9692 243.761 42.2857 243.526 40.8776 243.145C36.2388 241.79 31.9044 239.582 27.8746 236.522C23.8017 233.57 20.1262 229.848 16.848 225.353C13.5699 220.858 10.7032 215.714 8.24819 209.92C5.75743 204.059 3.84615 197.675 2.51433 190.769C1.973 188.029 1.54605 185.315 1.23346 182.626C0.806503 179.912 0.519046 177.081 0.37108 174.133C0.223113 171.185 0.121761 168.039 0.0670236 164.696C0.0909574 161.311 0.168792 157.552 0.300514 153.419C0.534843 145.86 1.20186 138.072 2.30158 130.055C3.40129 122.039 4.98361 113.984 7.04852 105.891C9.19209 97.7557 11.7753 89.6911 14.7981 81.6971C17.8996 73.6616 21.5657 65.9333 25.7963 58.5122C29.9912 51.0235 34.747 43.9303 40.0638 37.2327C45.4235 30.426 51.3726 24.2593 57.911 18.7325C60.1429 16.8626 62.8002 14.941 65.883 12.9677C68.9657 10.9944 72.0805 9.17718 75.2274 7.51592C78.2169 5.93773 81.0811 4.59861 83.82 3.49854C86.5233 2.33085 88.8044 1.60218 90.6634 1.31249C94.8462 0.660701 98.6279 0.869063 102.009 1.93758C105.432 2.89695 108.563 4.44359 111.399 6.5775C114.2 8.64381 116.693 11.1752 118.879 14.1717C121.143 17.1266 123.15 20.2607 124.899 23.574C126.612 26.8197 128.111 30.1353 129.395 33.521C130.723 36.7976 131.868 39.8244 132.831 42.6016C133.694 44.9991 134.468 47.7033 135.152 50.7142C135.915 53.6835 136.578 56.749 137.14 59.9105C137.702 63.0721 138.172 66.153 138.549 69.1533C138.925 72.1535 139.159 74.8833 139.25 77.3426ZM131.377 124.168C131.212 124.428 130.894 124.683 130.422 124.932C129.871 125.222 129.271 125.323 128.62 125.234C128.013 125.036 127.487 124.708 127.045 124.251C126.566 123.725 126.227 123.083 126.027 122.323C125.792 121.497 125.771 120.6 125.965 119.633C127.571 113.338 128.863 106.733 129.84 99.8191C130.86 92.7957 131.377 85.8656 131.389 79.0287C131.444 72.0826 130.855 65.3465 129.623 58.8206C128.356 52.227 126.276 46.1916 123.385 40.7146C122.956 39.9032 122.55 39.0372 122.164 38.1166C121.743 37.1284 121.415 36.2209 121.18 35.394C120.909 34.4996 120.788 33.6988 120.817 32.9917C120.81 32.217 121.025 31.6713 121.461 31.3545C121.783 31.0116 121.52 29.9404 120.67 28.1408C119.864 26.232 118.739 24.1021 117.297 21.7509C115.855 19.3997 114.294 17.1108 112.616 14.8842C110.902 12.59 109.373 10.9328 108.03 9.91272C105.386 7.76335 102.71 6.40945 100 5.85098C97.2556 5.22491 94.4318 5.1161 91.5289 5.52453C88.7047 5.89144 85.823 6.72104 82.8838 8.01331C79.9875 9.19644 77.0446 10.5771 74.0551 12.1553C72.4816 12.9859 70.9833 13.8634 69.5599 14.7877C68.1008 15.6444 66.7383 16.4934 65.4723 17.3347C52.5826 26.6467 41.5641 38.6455 32.4166 53.3312C23.3122 67.9078 16.0537 85.3142 10.6412 105.55C8.6841 112.895 7.10941 120.298 5.91717 127.758C4.8036 135.176 4.05826 142.53 3.68115 149.819C3.34701 156.999 3.40622 163.971 3.8588 170.735C4.31137 177.5 5.16458 183.88 6.41843 189.876C7.59361 195.913 9.21239 201.456 11.2748 206.507C13.2228 211.53 15.5431 215.926 18.2355 219.692C21.5851 224.322 25.2318 228.276 29.1758 231.555C33.0767 234.943 37.3251 237.369 41.921 238.833C46.5168 240.298 51.4637 240.713 56.7617 240.077C62.0597 239.442 67.8163 237.484 74.0313 234.203C76.5488 232.874 78.9555 231.43 81.2516 229.873C83.662 228.341 85.7435 226.853 87.4961 225.409C95.7944 218.261 103.032 209.771 109.209 199.939C115.386 190.107 120.381 179.084 124.193 166.869C125.21 163.651 126.221 160.135 127.225 156.319C128.271 152.395 129.218 148.566 130.064 144.834C130.989 141.06 131.75 137.546 132.345 134.292C133.02 130.996 133.458 128.301 133.66 126.205C133.89 124.355 134.12 122.504 134.35 120.653C134.545 118.735 134.678 117.368 134.75 116.551C134.901 114.742 134.938 113.858 134.859 113.9C134.623 114.024 134.132 115.667 133.386 118.828C133.021 120.231 132.605 121.445 132.14 122.469C131.717 123.383 131.463 123.95 131.377 124.168Z" fill="black"/>
</svg>
