<svg width="1795" height="305" viewBox="0 0 1795 305" fill="none" xmlns="http://www.w3.org/2000/svg">
<rect x="434.5" y="22.5" width="910" height="281" rx="138.971" stroke="black" stroke-width="3"/>
<rect x="1.5" y="126.5" width="631" height="69" rx="34.5" stroke="black" stroke-width="3"/>
<path fill-rule="evenodd" clip-rule="evenodd" d="M596.267 149.208H596.286C596.538 155.869 601.892 161.223 608.553 161.475V161.493C601.892 161.745 596.538 167.1 596.286 173.761H596.267C596.015 167.1 590.661 161.745 584 161.493V161.475C590.661 161.223 596.015 155.869 596.267 149.208Z" fill="#1F1E1E"/>
<path fill-rule="evenodd" clip-rule="evenodd" d="M531.267 149.208H531.286C531.538 155.869 536.892 161.223 543.553 161.475V161.493C536.892 161.745 531.538 167.1 531.286 173.761H531.267C531.015 167.1 525.661 161.745 519 161.493V161.475C525.661 161.223 531.015 155.869 531.267 149.208Z" fill="#1F1E1E"/>
<path fill-rule="evenodd" clip-rule="evenodd" d="M466.267 149.208H466.286C466.538 155.869 471.892 161.223 478.553 161.475V161.493C471.892 161.745 466.538 167.1 466.286 173.761H466.267C466.015 167.1 460.661 161.745 454 161.493V161.475C460.661 161.223 466.015 155.869 466.267 149.208Z" fill="#1F1E1E"/>
<path fill-rule="evenodd" clip-rule="evenodd" d="M401.267 149.208H401.286C401.538 155.869 406.892 161.223 413.553 161.475V161.493C406.892 161.745 401.538 167.1 401.286 173.761H401.267C401.015 167.1 395.661 161.745 389 161.493V161.475C395.661 161.223 401.015 155.869 401.267 149.208Z" fill="#1F1E1E"/>
<path fill-rule="evenodd" clip-rule="evenodd" d="M336.267 149.208H336.286C336.538 155.869 341.892 161.223 348.553 161.475V161.493C341.892 161.745 336.538 167.1 336.286 173.761H336.267C336.015 167.1 330.661 161.745 324 161.493V161.475C330.661 161.223 336.015 155.869 336.267 149.208Z" fill="#1F1E1E"/>
<path fill-rule="evenodd" clip-rule="evenodd" d="M271.267 149.208H271.286C271.538 155.869 276.892 161.223 283.553 161.475V161.493C276.892 161.745 271.538 167.1 271.286 173.761H271.267C271.015 167.1 265.661 161.745 259 161.493V161.475C265.661 161.223 271.015 155.869 271.267 149.208Z" fill="#1F1E1E"/>
<path fill-rule="evenodd" clip-rule="evenodd" d="M206.089 149.208H206.107C206.359 155.869 211.714 161.223 218.374 161.475V161.493C211.714 161.745 206.359 167.1 206.107 173.761H206.089C205.837 167.1 200.482 161.745 193.822 161.493V161.475C200.482 161.223 205.837 155.869 206.089 149.208Z" fill="#1F1E1E"/>
<path d="M1093.04 102.813C1091.48 103.147 1089.56 103.731 1087.28 104.565C1085 105.344 1082.5 106.346 1079.77 107.57C1077.1 108.794 1074.23 110.185 1071.17 111.742C1068.11 113.245 1065 114.83 1061.83 116.499C1058.27 123.955 1054.51 130.965 1050.56 137.53C1046.67 144.151 1042.41 150.382 1037.79 156.224C1033.17 162.065 1028.17 167.518 1022.77 172.581C1017.32 177.699 1011.34 182.484 1004.83 186.935C1001.77 189.049 998.707 190.913 995.647 192.526C992.587 194.14 989.888 195.364 987.552 196.198C986.272 196.643 984.742 196.977 982.962 197.2C981.181 197.478 979.484 197.617 977.871 197.617C976.814 197.617 975.868 197.561 975.033 197.45C974.199 197.394 973.503 197.255 972.947 197.033C971.501 196.532 970.277 195.698 969.275 194.529C968.274 193.361 967.606 192.165 967.272 190.941C966.326 187.324 967.662 182.818 971.278 177.421C974.894 172.08 980.514 166.433 988.136 160.48C993.588 156.307 998.957 152.19 1004.24 148.129C1009.53 144.123 1015.09 140.284 1020.93 136.612C1023.27 135.165 1025.91 133.524 1028.86 131.688C1031.81 129.852 1034.93 127.933 1038.21 125.93C1041.49 123.927 1044.88 121.868 1048.39 119.754C1051.95 117.64 1055.51 115.581 1059.07 113.578C1060.02 111.464 1060.94 109.35 1061.83 107.236C1062.72 105.066 1063.55 102.896 1064.33 100.726C1064.5 100.226 1064.55 99.8918 1064.5 99.7249C1064.5 99.5023 1064.25 99.5858 1063.75 99.9752C1063.3 100.365 1062.55 101.06 1061.49 102.062C1060.49 103.007 1059.07 104.398 1057.24 106.234C1053.51 109.906 1050.53 112.577 1048.31 114.246C1046.08 115.915 1044.22 116.75 1042.72 116.75C1041.32 116.75 1040.04 116.026 1038.88 114.58C1038.54 114.19 1038.29 113.857 1038.13 113.578C1037.9 113.3 1037.76 112.994 1037.71 112.66C1037.6 112.271 1037.54 111.854 1037.54 111.409C1037.54 110.908 1037.57 110.296 1037.62 109.573C1037.74 107.903 1038.07 106.262 1038.63 104.649C1039.18 103.035 1039.88 101.45 1040.71 99.8918C1041.49 98.334 1042.35 96.8318 1043.3 95.3852C1044.3 93.883 1045.25 92.4643 1046.14 91.129C1047.14 89.6825 1048.25 88.9592 1049.47 88.9592C1050.37 88.9592 1051.23 89.293 1052.06 89.9607C1052.95 90.684 1053.31 91.296 1053.15 91.7967C1052.98 92.2418 1052.51 92.7703 1051.73 93.3823C1051.39 93.6605 1050.75 94.3281 1049.81 95.3852C1048.92 96.4423 1047.97 97.6663 1046.97 99.0572C1045.97 100.448 1045.02 101.867 1044.13 103.313C1043.24 104.76 1042.6 106.04 1042.21 107.152C1041.71 108.599 1041.55 109.879 1041.71 110.991C1041.88 112.048 1042.33 112.577 1043.05 112.577C1043.49 112.577 1044.19 112.243 1045.14 111.575C1046.08 110.908 1047.17 110.045 1048.39 108.988C1049.67 107.931 1051 106.735 1052.4 105.4C1053.84 104.009 1055.21 102.646 1056.49 101.311C1057.82 99.9196 1059.02 98.5843 1060.07 97.3047C1061.19 96.025 1062.02 94.9123 1062.58 93.9665C1063.41 92.52 1064.16 91.4907 1064.83 90.8787C1065.55 90.2667 1066.33 89.9607 1067.17 89.9607C1067.83 89.9607 1068.47 90.072 1069.09 90.2945C1070.14 90.6283 1070.81 91.129 1071.09 91.7967C1071.42 92.4087 1071.53 93.132 1071.42 93.9665C1071.31 94.7454 1071.06 95.58 1070.67 96.4701C1070.28 97.3047 1069.92 98.1392 1069.59 98.9738C1069.42 99.4745 1069.14 100.17 1068.75 101.06C1068.36 101.95 1067.95 102.896 1067.5 103.898C1067.06 104.899 1066.61 105.901 1066.17 106.902C1065.78 107.848 1065.41 108.655 1065.08 109.322C1064.97 109.545 1064.8 109.934 1064.58 110.491C1069.59 107.764 1074.4 105.316 1079.02 103.147C1083.64 100.921 1087.81 99.2241 1091.54 98.0558C1091.98 97.9445 1092.45 98.0836 1092.95 98.473C1093.46 98.8625 1093.76 99.2798 1093.87 99.7249C1093.98 100.17 1093.98 100.782 1093.87 101.561C1093.76 102.284 1093.48 102.701 1093.04 102.813ZM1056.23 119.504C1052.67 121.451 1049.17 123.398 1045.72 125.345C1042.33 127.293 1039.13 129.157 1036.12 130.937C1033.12 132.717 1030.42 134.359 1028.03 135.861C1025.63 137.419 1023.69 138.726 1022.19 139.783C1016.34 143.845 1010.72 147.823 1005.33 151.717C999.875 155.612 994.923 159.367 990.473 162.983C986.022 166.6 982.238 170.105 979.123 173.499C975.951 176.893 973.782 180.119 972.613 183.179C971.167 187.018 970.916 189.884 971.862 191.775C972.808 193.667 974.811 194.613 977.871 194.613C979.818 194.613 981.904 194.279 984.13 193.611C986.355 192.999 988.637 192.165 990.973 191.108C993.254 190.05 995.535 188.827 997.816 187.436C1000.1 186.1 1002.3 184.709 1004.41 183.263C1006.52 181.816 1008.5 180.37 1010.33 178.923C1012.17 177.532 1013.78 176.253 1015.18 175.084C1020.02 170.912 1024.36 166.711 1028.19 162.483C1032.03 158.31 1035.57 153.97 1038.79 149.464C1042.02 145.013 1045.02 140.312 1047.81 135.36C1050.64 130.464 1053.45 125.179 1056.23 119.504Z" fill="black"/>
<path d="M1047.22 43.2262C1045 46.8425 1042.41 50.598 1039.46 54.4925C1036.57 58.3871 1033.43 62.3095 1030.03 66.2596C1026.64 70.2098 1023.02 74.1044 1019.18 77.9433C1015.4 81.7265 1011.51 85.3429 1007.5 88.7924C1003.55 92.2418 999.545 95.4131 995.483 98.3062C991.422 101.199 987.416 103.703 983.466 105.817C982.242 108.599 981.212 111.075 980.378 113.245C979.543 115.359 978.903 117.278 978.458 119.003C977.958 120.728 977.652 122.258 977.54 123.593C977.373 124.984 977.346 126.319 977.457 127.599C977.679 130.381 978.291 132.439 979.293 133.774C980.239 135.11 981.824 136.083 984.05 136.695C985.051 136.973 986.053 137.113 987.054 137.113C988.89 137.113 990.977 136.695 993.313 135.861C995.65 135.026 998.321 133.691 1001.32 131.855C1004.38 130.019 1007.86 127.627 1011.76 124.678C1015.65 121.729 1020.1 118.168 1025.11 113.996C1029.45 110.324 1032.82 107.264 1035.21 104.816C1037.66 102.312 1039.3 100.615 1040.13 99.7249C1040.74 99.1129 1041.27 98.8069 1041.72 98.8069C1042.05 98.8069 1042.44 98.946 1042.89 99.2242C1043.61 99.6693 1044.14 100.198 1044.47 100.81C1044.86 101.366 1044.8 101.95 1044.3 102.562C1043.36 103.786 1042.36 104.983 1041.3 106.151C1040.24 107.264 1039.16 108.293 1038.04 109.239C1036.99 110.185 1035.4 111.548 1033.29 113.328C1031.17 115.053 1028.89 116.889 1026.44 118.836C1024 120.839 1021.58 122.758 1019.18 124.594C1016.79 126.43 1014.82 127.905 1013.26 129.017C1007.64 133.079 1002.63 136.111 998.237 138.114C993.897 140.173 990.003 141.202 986.553 141.202C984.717 141.202 983.048 140.924 981.546 140.367C978.264 139.199 975.983 137.585 974.703 135.527C973.423 133.468 972.811 130.881 972.867 127.766C972.867 126.208 972.978 124.678 973.201 123.176C973.368 121.729 973.701 120.116 974.202 118.335C974.703 116.611 975.371 114.691 976.205 112.577C976.984 110.407 977.985 107.876 979.209 104.983C981.769 98.9738 984.662 93.0485 987.889 87.2067C991.116 81.3093 994.537 75.5231 998.154 69.8482C1001.83 64.1733 1005.61 58.6096 1009.5 53.1573C1013.4 47.6493 1017.29 42.3082 1021.19 37.134C1024.02 33.3507 1026.81 30.0125 1029.53 27.1195C1032.26 24.2264 1034.85 21.8062 1037.29 19.8589C1039.74 17.856 1042.02 16.3538 1044.14 15.3524C1046.25 14.2953 1048.12 13.7667 1049.73 13.7667C1051.4 13.7667 1052.76 14.2953 1053.82 15.3524C1055.93 17.4109 1056.46 20.7769 1055.4 25.4504C1054.4 30.1238 1051.68 36.0491 1047.22 43.2262ZM1007.83 61.7531C1006.17 64.2011 1004.47 66.7882 1002.74 69.5144C1001.02 72.1849 999.35 74.8555 997.736 77.526C996.123 80.1965 994.593 82.7558 993.146 85.2038C991.755 87.5962 990.559 89.7382 989.558 91.6298C988.612 93.4658 987.917 94.9402 987.471 96.0529C987.026 97.11 986.915 97.6385 987.138 97.6385C997.764 89.8495 1007.78 81.0867 1017.18 71.3504C1026.58 61.614 1034.93 51.2378 1042.22 40.2218C1043.94 37.5513 1045.47 35.0476 1046.81 32.7109C1048.2 30.3185 1049.34 28.1765 1050.23 26.2849C1051.12 24.3376 1051.76 22.6685 1052.15 21.2776C1052.54 19.8867 1052.62 18.8296 1052.4 18.1064C1052.18 17.4387 1051.59 17.1049 1050.65 17.1049C1049.48 17.1049 1047.92 17.5778 1045.97 18.5236C1044.08 19.4138 1042.08 20.6656 1039.96 22.2791C1038.24 23.67 1036.21 25.5895 1033.87 28.0375C1031.54 30.4855 1028.98 33.4064 1026.19 36.8002C1023.47 40.194 1020.55 44.0051 1017.43 48.2335C1014.37 52.4062 1011.17 56.9127 1007.83 61.7531Z" fill="black"/>
<path d="M928.532 108.488C929.923 107.208 931.286 105.928 932.621 104.649C934.012 103.313 935.375 102.006 936.71 100.726C937.823 99.6136 939.214 98.3062 940.883 96.804C942.608 95.2462 944.499 93.6327 946.558 91.9636C948.616 90.2945 950.758 88.6532 952.984 87.0398C955.265 85.3707 957.49 83.8963 959.66 82.6167C961.886 81.2814 964 80.2243 966.003 79.4454C968.061 78.6109 969.869 78.1936 971.427 78.1936C972.373 78.1936 973.152 78.4996 973.764 79.1116C974.376 79.7236 974.682 80.5025 974.682 81.4483C974.682 82.4498 974.237 83.5625 973.347 84.7865C972.512 85.9549 971.427 87.1511 970.092 88.3751C968.757 89.5991 967.255 90.8231 965.585 92.0471C963.916 93.2154 962.247 94.3003 960.578 95.3018C958.965 96.3032 957.463 97.1934 956.072 97.9723C954.681 98.7512 953.568 99.3632 952.733 99.8083C951.12 100.587 949.507 101.338 947.893 102.062C946.335 102.729 944.722 103.369 943.053 103.981C942.107 104.315 941.3 104.649 940.633 104.983C940.021 105.316 939.492 105.734 939.047 106.234C938.657 106.679 938.379 107.236 938.212 107.903C938.045 108.571 937.962 109.433 937.962 110.491C937.962 111.937 938.101 113.3 938.379 114.58C938.657 115.859 939.13 116.972 939.798 117.918C940.466 118.864 941.356 119.587 942.469 120.088C943.581 120.644 944.972 120.922 946.641 120.922C949.089 120.922 951.76 120.255 954.653 118.919C957.546 117.64 960.439 116.054 963.332 114.163C966.225 112.271 969.007 110.268 971.678 108.154C974.348 105.984 976.657 104.092 978.604 102.479C979.884 101.422 980.885 100.615 981.609 100.059C982.332 99.4467 982.749 99.1407 982.861 99.1407C983.473 99.1407 984.029 99.4745 984.53 100.142C985.086 100.754 985.364 101.394 985.364 102.062C985.364 102.395 985.281 102.701 985.114 102.98C985.003 103.202 984.53 103.619 983.695 104.231C982.861 104.843 981.831 105.567 980.607 106.401C979.439 107.18 978.159 108.015 976.768 108.905C975.377 109.795 974.042 110.657 972.763 111.492C971.483 112.271 970.342 112.966 969.341 113.578C968.339 114.19 967.644 114.608 967.255 114.83C965.752 115.72 964.055 116.666 962.164 117.668C960.328 118.725 958.408 119.671 956.405 120.505C954.458 121.395 952.483 122.119 950.48 122.675C948.533 123.231 946.669 123.509 944.889 123.509C942.83 123.509 941.161 123.12 939.881 122.341C938.602 121.618 937.6 120.616 936.877 119.337C936.154 118.113 935.597 116.722 935.208 115.164C934.819 113.551 934.457 111.909 934.123 110.24C932.398 112.354 930.729 114.496 929.116 116.666C927.502 118.78 925.889 120.922 924.275 123.092C923.497 124.149 922.718 125.29 921.939 126.514C921.104 127.793 920.214 128.851 919.268 129.685C919.101 129.852 918.851 129.935 918.517 129.935C917.905 129.935 917.265 129.657 916.598 129.101C915.874 128.6 915.513 128.044 915.513 127.432C915.513 127.321 915.819 126.653 916.431 125.429C916.987 124.205 917.71 122.703 918.601 120.922C919.435 119.198 920.381 117.306 921.438 115.247C922.495 113.189 923.497 111.242 924.442 109.406C925.388 107.57 926.223 105.956 926.946 104.565C927.669 103.174 928.142 102.284 928.365 101.895C928.087 101.672 927.781 101.394 927.447 101.06C927.113 100.671 926.946 100.309 926.946 99.9752C926.946 99.7527 927.057 99.5023 927.28 99.2242C927.447 98.8903 927.669 98.5565 927.947 98.2227C928.226 97.8889 928.504 97.5551 928.782 97.2212C929.06 96.8874 929.255 96.6371 929.366 96.4702C930.089 95.5243 930.785 94.5785 931.453 93.6327C932.12 92.6312 932.788 91.6298 933.455 90.6283C936.182 86.6225 938.824 82.6167 941.384 78.6109C943.999 74.6051 946.613 70.5714 949.228 66.51C951.676 62.7823 954.097 59.0547 956.489 55.3271C958.881 51.5994 961.329 47.8996 963.833 44.2276C965.391 41.9465 966.921 39.6932 968.423 37.4678C969.981 35.1867 971.622 32.9891 973.347 30.8749C973.681 30.5411 974.042 30.3741 974.432 30.3741C974.821 30.3741 975.238 30.5132 975.683 30.7914C976.129 31.014 976.546 31.32 976.935 31.7094C977.325 32.0989 977.631 32.5161 977.853 32.9612C978.131 33.4063 978.271 33.8236 978.271 34.2131C978.271 35.3814 977.881 36.9114 977.102 38.8031C976.379 40.6391 975.433 42.6698 974.265 44.8952C973.096 47.0651 971.761 49.3183 970.259 51.6551C968.812 53.9918 967.338 56.2451 965.836 58.4149C964.389 60.5847 963.026 62.5598 961.747 64.3401C960.467 66.1205 959.41 67.5671 958.575 68.6798C955.46 72.7969 952.261 76.8027 948.978 80.6972C945.751 84.5918 942.357 88.4029 938.797 92.1305C938.018 92.9651 937.35 93.744 936.794 94.4672C936.237 95.1349 935.709 95.8025 935.208 96.4702C934.763 97.1378 934.318 97.8611 933.873 98.64C933.428 99.4189 932.899 100.337 932.287 101.394C931.619 102.562 930.98 103.759 930.368 104.983C929.811 106.151 929.199 107.319 928.532 108.488ZM973.096 39.0534C971.149 41.8909 969.118 44.8396 967.004 47.8996C964.946 50.904 962.887 53.964 960.829 57.0796C958.77 60.1396 956.767 63.2274 954.82 66.3431C952.928 69.4587 951.203 72.5465 949.646 75.6065C951.426 73.4367 953.234 71.1834 955.07 68.8467C956.906 66.4543 958.714 64.0342 960.495 61.5862C962.331 59.0825 964.083 56.5789 965.752 54.0752C967.477 51.5716 969.035 49.0958 970.426 46.6478C970.648 46.314 970.954 45.8132 971.344 45.1456C971.733 44.4223 972.095 43.6991 972.429 42.9758C972.818 42.1969 973.152 41.4736 973.43 40.806C973.708 40.1383 973.847 39.6376 973.847 39.3038C973.847 39.0812 973.736 38.9422 973.514 38.8865C973.347 38.8309 973.208 38.8865 973.096 39.0534ZM946.307 99.3076C947.531 98.6956 948.755 98.0836 949.979 97.4716C951.203 96.8596 952.427 96.2476 953.651 95.6356C954.931 94.968 956.155 94.3003 957.323 93.6327C958.547 92.9094 959.716 92.1583 960.829 91.3794C961.274 91.1012 961.913 90.6283 962.748 89.9607C963.638 89.2931 964.556 88.5976 965.502 87.8743C966.448 87.0954 967.31 86.3443 968.089 85.6211C968.924 84.8978 969.452 84.3414 969.675 83.952C969.786 83.7851 969.814 83.6181 969.758 83.4512C969.703 83.2843 969.536 83.2009 969.257 83.2009C968.757 83.2009 967.95 83.4791 966.837 84.0354C965.725 84.5362 964.473 85.2038 963.082 86.0383C961.691 86.8729 960.244 87.7909 958.742 88.7923C957.24 89.7938 955.821 90.7952 954.486 91.7967C953.151 92.7425 951.955 93.6327 950.897 94.4672C949.896 95.2462 949.173 95.8303 948.728 96.2198L944.305 100.393L946.307 99.3076Z" fill="black"/>
<path d="M927.809 99.9753C928.643 99.6971 929.283 99.8362 929.728 100.393C930.173 100.949 930.396 101.477 930.396 101.978C930.396 102.312 930.145 102.757 929.645 103.313C929.2 103.87 928.56 104.51 927.725 105.233C926.946 105.901 926 106.652 924.888 107.486C923.831 108.321 922.69 109.183 921.466 110.073C917.071 113.3 912.982 115.776 909.198 117.501C905.415 119.281 901.993 120.171 898.933 120.171C896.875 120.171 895.011 119.754 893.342 118.919C891.339 117.918 889.948 116.666 889.169 115.164C888.335 113.606 887.945 111.464 888.001 108.738C888.001 107.514 888.112 106.373 888.335 105.316C888.557 104.204 888.919 103.091 889.42 101.978C889.865 100.81 890.477 99.6415 891.256 98.4731C891.979 97.3048 892.869 96.0251 893.926 94.6342C894.427 93.9666 895.011 93.2711 895.679 92.5479C896.346 91.7689 897.07 91.0735 897.848 90.4615C898.627 89.8495 899.462 89.3488 900.352 88.9593C901.242 88.5699 902.16 88.3751 903.106 88.3751C904.831 88.3751 906.222 89.0428 907.279 90.378C908.336 91.7133 908.698 93.2989 908.364 95.1349C908.197 96.1364 907.668 97.1935 906.778 98.3062C905.944 99.4189 904.914 100.504 903.69 101.561C902.466 102.618 901.131 103.564 899.684 104.398C898.238 105.177 896.791 105.761 895.345 106.151C894.622 106.318 894.037 106.485 893.592 106.652C893.203 106.763 892.897 106.902 892.674 107.069C892.507 107.236 892.396 107.458 892.34 107.737C892.285 108.015 892.229 108.404 892.174 108.905C892.007 110.852 892.619 112.521 894.01 113.912C895.4 115.247 897.181 115.915 899.351 115.915C901.465 115.915 903.69 115.47 906.027 114.58C908.364 113.634 910.645 112.493 912.87 111.158C915.151 109.823 917.321 108.376 919.38 106.819C921.438 105.261 923.219 103.814 924.721 102.479C925.333 101.978 925.917 101.477 926.473 100.977C927.085 100.42 927.53 100.087 927.809 99.9753ZM901.938 93.2155C901.548 93.2155 900.964 93.5493 900.185 94.2169C899.462 94.8289 898.683 95.58 897.848 96.4702C897.014 97.3604 896.235 98.3062 895.512 99.3077C894.844 100.253 894.371 101.06 894.093 101.728C895.54 101.06 896.764 100.337 897.765 99.558C898.822 98.7791 899.824 97.7777 900.769 96.5537C901.715 95.3297 902.272 94.4673 902.438 93.9666C902.605 93.4659 902.438 93.2155 901.938 93.2155Z" fill="black"/>
<path d="M891.868 99.9753C892.702 99.6971 893.342 99.8362 893.787 100.393C894.232 100.949 894.455 101.477 894.455 101.978C894.455 102.312 894.204 102.757 893.704 103.313C893.259 103.87 892.619 104.51 891.784 105.233C891.005 105.901 890.06 106.652 888.947 107.486C887.89 108.321 886.749 109.183 885.525 110.073C881.13 113.3 877.041 115.776 873.257 117.501C869.474 119.281 866.052 120.171 862.992 120.171C860.934 120.171 859.07 119.754 857.401 118.919C855.398 117.918 854.007 116.666 853.228 115.164C852.394 113.606 852.004 111.464 852.06 108.738C852.06 107.514 852.171 106.373 852.394 105.316C852.616 104.204 852.978 103.091 853.479 101.978C853.924 100.81 854.536 99.6415 855.315 98.4731C856.038 97.3048 856.928 96.0251 857.985 94.6342C858.486 93.9666 859.07 93.2711 859.738 92.5479C860.405 91.7689 861.129 91.0735 861.908 90.4615C862.686 89.8495 863.521 89.3488 864.411 88.9593C865.301 88.5699 866.219 88.3751 867.165 88.3751C868.89 88.3751 870.281 89.0428 871.338 90.378C872.395 91.7133 872.757 93.2989 872.423 95.1349C872.256 96.1364 871.727 97.1935 870.837 98.3062C870.003 99.4189 868.973 100.504 867.749 101.561C866.525 102.618 865.19 103.564 863.744 104.398C862.297 105.177 860.85 105.761 859.404 106.151C858.681 106.318 858.096 106.485 857.651 106.652C857.262 106.763 856.956 106.902 856.733 107.069C856.566 107.236 856.455 107.458 856.4 107.737C856.344 108.015 856.288 108.404 856.233 108.905C856.066 110.852 856.678 112.521 858.069 113.912C859.46 115.247 861.24 115.915 863.41 115.915C865.524 115.915 867.749 115.47 870.086 114.58C872.423 113.634 874.704 112.493 876.929 111.158C879.21 109.823 881.38 108.376 883.439 106.819C885.497 105.261 887.278 103.814 888.78 102.479C889.392 101.978 889.976 101.477 890.532 100.977C891.144 100.42 891.59 100.087 891.868 99.9753ZM865.997 93.2155C865.607 93.2155 865.023 93.5493 864.244 94.2169C863.521 94.8289 862.742 95.58 861.908 96.4702C861.073 97.3604 860.294 98.3062 859.571 99.3077C858.903 100.253 858.43 101.06 858.152 101.728C859.599 101.06 860.823 100.337 861.824 99.558C862.881 98.7791 863.883 97.7777 864.828 96.5537C865.774 95.3297 866.331 94.4673 866.498 93.9666C866.664 93.4659 866.498 93.2155 865.997 93.2155Z" fill="black"/>
<path d="M862.253 5.42125C861.864 5.03179 861.752 4.55888 861.919 4.00252C862.086 3.44616 862.392 2.91761 862.837 2.41689C863.338 1.86053 863.922 1.41544 864.59 1.08162C865.257 0.692163 865.897 0.497437 866.509 0.497437C867.288 0.497437 867.928 0.803433 868.429 1.41543C868.929 2.02743 869.18 3.14016 869.18 4.75362C869.18 12.5427 868.234 20.4987 866.342 28.6216C864.451 36.7445 861.78 44.8953 858.331 53.0738C854.937 61.1967 850.82 69.264 845.979 77.2756C841.195 85.2873 835.909 93.1042 830.123 100.726C824.782 107.737 819.33 114.246 813.766 120.255C808.258 126.319 802.833 131.688 797.492 136.361C792.207 141.035 787.144 144.929 782.304 148.045C777.519 151.161 773.151 153.303 769.201 154.471C768.033 154.805 766.586 154.972 764.862 154.972C763.248 154.972 761.635 154.833 760.021 154.555C758.408 154.332 757.128 154.054 756.182 153.72C753.567 152.774 751.398 151.105 749.673 148.713C748.004 146.376 746.808 143.455 746.084 139.95C745.417 136.445 745.222 132.411 745.5 127.849C745.778 123.343 746.585 118.447 747.92 113.161C748.254 111.715 748.616 110.212 749.005 108.655C749.45 107.097 749.784 105.956 750.007 105.233L750.841 102.479C749.228 104.092 747.336 106.012 745.166 108.237C743.052 110.463 740.771 112.827 738.323 115.331C735.875 117.835 733.316 120.366 730.645 122.925C728.03 125.485 725.415 127.905 722.801 130.186C720.241 132.467 717.765 134.525 715.373 136.361C712.981 138.197 710.811 139.588 708.864 140.534C707.25 141.369 705.637 141.981 704.023 142.37C702.41 142.76 700.88 142.954 699.433 142.954C696.707 142.954 694.315 142.342 692.256 141.118C690.253 139.95 688.807 138.337 687.917 136.278C686.526 132.995 686.164 128.545 686.832 122.925C687.444 117.362 688.974 111.047 691.422 103.981C693.87 96.8596 697.152 89.2096 701.269 81.0311C705.442 72.7969 710.31 64.3958 715.874 55.8278C720.158 49.3183 724.497 43.1983 728.893 37.4678C733.344 31.6816 737.544 26.6465 741.494 22.3625C745.445 18.0229 749.005 14.6013 752.177 12.0976C755.348 9.53834 757.768 8.2587 759.437 8.2587C760.383 8.2587 761.217 8.59252 761.941 9.26016C762.664 9.87216 763.026 10.6232 763.026 11.5134C763.026 12.4036 762.636 13.6276 761.857 15.1854C761.078 16.6876 760.049 18.3567 758.769 20.1927C757.545 21.9731 756.155 23.8369 754.597 25.7842C753.039 27.7314 751.481 29.5953 749.923 31.3756C748.365 33.1003 746.863 34.6582 745.417 36.0491C744.026 37.3843 742.857 38.3858 741.912 39.0534C741.411 39.3873 740.938 39.5542 740.493 39.5542C739.992 39.5542 739.547 39.4151 739.158 39.1369C738.768 38.8031 738.462 38.4414 738.24 38.052C738.017 37.6625 737.878 37.2731 737.822 36.8836C737.822 36.4942 737.934 36.1882 738.156 35.9656C739.213 34.9642 740.437 33.7402 741.828 32.2936C743.275 30.7914 744.749 29.2058 746.251 27.5367C747.753 25.8676 749.228 24.1985 750.674 22.5294C752.121 20.8047 753.401 19.2469 754.513 17.856C755.626 16.4651 756.488 15.3245 757.1 14.4343C757.712 13.4885 757.963 12.9322 757.851 12.7653C757.573 12.7653 756.989 13.0434 756.099 13.5998C755.264 14.1562 754.263 14.8794 753.095 15.7696C751.982 16.6598 750.786 17.6613 749.506 18.774C748.282 19.8867 747.114 20.9994 746.001 22.1122C741.828 26.2292 737.683 30.7914 733.566 35.7987C729.449 40.7503 725.471 45.9802 721.632 51.4882C717.793 56.9962 714.121 62.6989 710.616 68.5963C707.167 74.4382 704.023 80.3356 701.186 86.2887C699.183 90.4614 697.43 94.356 695.928 97.9723C694.482 101.589 693.258 104.983 692.256 108.154C691.31 111.325 690.587 114.302 690.086 117.083C689.641 119.921 689.419 122.647 689.419 125.262C689.419 126.653 689.419 127.793 689.419 128.684C689.419 129.574 689.447 130.325 689.502 130.937C689.613 131.605 689.753 132.161 689.919 132.606C690.086 133.107 690.281 133.635 690.504 134.192C692.006 137.419 694.509 139.06 698.015 139.115C700.017 139.115 702.243 138.615 704.691 137.613C707.139 136.667 709.837 135.165 712.786 133.107C715.79 131.048 719.101 128.433 722.717 125.262C726.333 122.091 730.311 118.335 734.651 113.996C741.272 107.375 746.251 102.145 749.589 98.3062C752.983 94.4116 754.986 91.6576 755.598 90.0442C755.876 89.3209 756.321 88.2638 756.933 86.8729C757.545 85.482 758.269 83.9242 759.103 82.1994C759.993 80.4191 760.911 78.5553 761.857 76.608C762.859 74.6607 763.832 72.7691 764.778 70.9331C765.724 69.0971 766.614 67.428 767.449 65.9258C768.283 64.368 768.979 63.0883 769.535 62.0869C771.037 59.5833 772.539 57.2187 774.042 54.9933C775.599 52.7678 777.102 50.7649 778.548 48.9845C779.995 47.1485 781.358 45.5907 782.637 44.3111C783.973 42.9758 785.169 41.9743 786.226 41.3067C787.339 40.6391 788.451 40.3053 789.564 40.3053C790.733 40.3053 791.817 40.6391 792.819 41.3067C793.82 41.9187 794.488 42.8367 794.822 44.0607C795.211 45.2847 795.183 46.7591 794.738 48.4838C794.293 50.1529 793.181 52.0445 791.4 54.1587C790.399 55.3827 788.813 57.3856 786.643 60.1674C784.473 62.8936 781.97 66.0093 779.132 69.5143C776.351 73.0194 773.374 76.6914 770.203 80.5303C767.031 84.3136 763.971 87.8465 761.023 91.1291C759.799 92.52 758.881 93.5771 758.269 94.3003C757.712 94.968 757.267 95.58 756.933 96.1363C756.655 96.6927 756.405 97.3325 756.182 98.0558C756.015 98.7234 755.682 99.7249 755.181 101.06C753.957 104.51 752.9 107.709 752.01 110.657C751.175 113.606 750.48 116.388 749.923 119.003C749.423 121.673 749.089 124.177 748.922 126.514C748.755 128.906 748.727 131.243 748.838 133.524C748.95 135.638 749.2 137.752 749.589 139.867C750.035 141.981 750.73 143.872 751.676 145.541C752.622 147.211 753.901 148.574 755.515 149.631C757.128 150.688 759.187 151.216 761.69 151.216C764.695 151.216 767.949 150.493 771.455 149.047C776.351 146.988 781.33 144.123 786.393 140.451C791.456 136.779 796.435 132.606 801.331 127.933C806.283 123.259 811.068 118.224 815.685 112.827C820.359 107.431 824.726 101.978 828.788 96.4702C832.849 90.9622 836.521 85.5376 839.804 80.1965C843.086 74.8554 845.868 69.9038 848.149 65.3416C851.543 58.4983 854.408 51.7385 856.745 45.0622C859.082 38.3858 860.834 32.3214 862.003 26.8691C863.227 21.3611 863.867 16.7154 863.922 12.9322C863.978 9.09325 863.421 6.58961 862.253 5.42125ZM772.289 65.9258C771.399 67.428 770.425 69.0971 769.368 70.9331C768.367 72.7134 767.421 74.4103 766.531 76.0238C765.641 77.6373 764.917 79.0003 764.361 80.1131C763.86 81.1702 763.665 81.6987 763.777 81.6987C763.777 81.6987 764.055 81.3649 764.611 80.6973C765.223 80.0296 766.002 79.1394 766.948 78.0267C767.949 76.8583 769.09 75.5231 770.37 74.0209C771.649 72.4631 773.012 70.8218 774.459 69.0971C776.907 66.1483 778.965 63.5891 780.635 61.4193C782.359 59.1938 783.75 57.3022 784.807 55.7443C785.92 54.1309 786.782 52.8234 787.394 51.822C788.062 50.7649 788.591 49.9303 788.98 49.3183C789.926 47.8162 790.037 46.8703 789.314 46.4809C788.646 46.0358 787.506 46.5643 785.892 48.0665C784.946 48.9567 783.889 50.0973 782.721 51.4882C781.553 52.8234 780.356 54.2978 779.132 55.9113C777.908 57.4691 776.712 59.1103 775.544 60.8351C774.375 62.5598 773.291 64.2567 772.289 65.9258Z" fill="black"/>
<path d="M939.17 210.73H956.557C956.831 212.433 957.628 213.916 958.946 215.179C960.265 216.443 962.023 217.431 964.22 218.146C966.472 218.805 969.109 219.134 972.13 219.134C976.305 219.134 979.601 218.613 982.018 217.569C984.435 216.47 985.644 214.877 985.644 212.79C985.644 211.197 984.957 209.961 983.584 209.082C982.211 208.203 979.574 207.571 975.674 207.186L964.138 206.115C955.623 205.346 949.443 203.423 945.598 200.347C941.752 197.216 939.83 193.014 939.83 187.74C939.83 183.455 941.066 179.83 943.538 176.863C946.065 173.897 949.58 171.672 954.085 170.189C958.644 168.651 963.945 167.882 969.988 167.882C975.921 167.882 981.194 168.733 985.809 170.436C990.423 172.084 994.076 174.446 996.768 177.522C999.515 180.599 1001 184.169 1001.22 188.234H983.914C983.694 186.751 982.98 185.488 981.771 184.444C980.618 183.345 979.025 182.521 976.992 181.972C974.959 181.368 972.515 181.066 969.658 181.066C965.813 181.066 962.764 181.587 960.512 182.631C958.26 183.62 957.134 185.103 957.134 187.081C957.134 188.509 957.793 189.663 959.111 190.542C960.485 191.421 962.929 192.025 966.445 192.354L978.722 193.59C984.6 194.14 989.297 195.101 992.813 196.474C996.329 197.793 998.883 199.633 1000.48 201.995C1002.07 204.357 1002.87 207.296 1002.87 210.812C1002.87 215.152 1001.57 218.942 998.993 222.183C996.411 225.369 992.785 227.869 988.116 229.682C983.447 231.439 978.008 232.318 971.801 232.318C965.429 232.318 959.798 231.439 954.909 229.682C950.075 227.869 946.284 225.342 943.538 222.101C940.791 218.805 939.335 215.014 939.17 210.73Z" fill="black"/>
<path d="M861.486 210.73H878.872C879.147 212.433 879.943 213.916 881.262 215.179C882.58 216.443 884.338 217.431 886.535 218.146C888.788 218.805 891.425 219.134 894.446 219.134C898.621 219.134 901.917 218.613 904.334 217.569C906.751 216.47 907.959 214.877 907.959 212.79C907.959 211.197 907.273 209.961 905.899 209.082C904.526 208.203 901.889 207.571 897.989 207.186L886.453 206.115C877.938 205.346 871.758 203.423 867.913 200.347C864.068 197.216 862.145 193.014 862.145 187.74C862.145 183.455 863.381 179.83 865.853 176.863C868.38 173.897 871.896 171.672 876.4 170.189C880.96 168.651 886.261 167.882 892.303 167.882C898.236 167.882 903.51 168.733 908.124 170.436C912.739 172.084 916.392 174.446 919.083 177.522C921.83 180.599 923.313 184.169 923.533 188.234H906.229C906.009 186.751 905.295 185.488 904.087 184.444C902.933 183.345 901.34 182.521 899.307 181.972C897.275 181.368 894.83 181.066 891.974 181.066C888.129 181.066 885.08 181.587 882.827 182.631C880.575 183.62 879.449 185.103 879.449 187.081C879.449 188.509 880.108 189.663 881.427 190.542C882.8 191.421 885.245 192.025 888.76 192.354L901.038 193.59C906.916 194.14 911.613 195.101 915.128 196.474C918.644 197.793 921.198 199.633 922.791 201.995C924.385 204.357 925.181 207.296 925.181 210.812C925.181 215.152 923.89 218.942 921.308 222.183C918.726 225.369 915.101 227.869 910.431 229.682C905.762 231.439 900.324 232.318 894.116 232.318C887.744 232.318 882.113 231.439 877.224 229.682C872.39 227.869 868.6 225.342 865.853 222.101C863.106 218.805 861.651 215.014 861.486 210.73Z" fill="black"/>
<path d="M847.759 205.126C847.154 210.565 845.287 215.344 842.155 219.464C839.024 223.529 834.904 226.688 829.795 228.94C824.741 231.192 818.919 232.318 812.327 232.318C805.13 232.318 798.84 230.973 793.457 228.281C788.073 225.589 783.871 221.826 780.85 216.992C777.883 212.158 776.4 206.527 776.4 200.1C776.4 193.673 777.883 188.042 780.85 183.208C783.871 178.374 788.073 174.611 793.457 171.919C798.84 169.227 805.13 167.882 812.327 167.882C818.919 167.882 824.741 169.008 829.795 171.26C834.904 173.512 839.024 176.698 842.155 180.818C845.287 184.883 847.154 189.635 847.759 195.074H830.619C830.07 192.437 828.999 190.212 827.406 188.399C825.813 186.531 823.725 185.103 821.143 184.114C818.616 183.126 815.677 182.631 812.327 182.631C808.481 182.631 805.158 183.345 802.356 184.774C799.555 186.147 797.412 188.152 795.929 190.789C794.446 193.371 793.704 196.474 793.704 200.1C793.704 203.726 794.446 206.857 795.929 209.494C797.412 212.075 799.555 214.081 802.356 215.509C805.158 216.882 808.481 217.569 812.327 217.569C815.677 217.569 818.616 217.102 821.143 216.168C823.725 215.234 825.813 213.833 827.406 211.966C828.999 210.098 830.07 207.818 830.619 205.126H847.759Z" fill="black"/>
<path d="M921.75 262H933.31V264.84H922.89L924.41 264.12L923.57 269.76H922.61C922.903 269.267 923.303 268.813 923.81 268.4C924.33 267.987 924.963 267.653 925.71 267.4C926.456 267.147 927.316 267.02 928.29 267.02C929.583 267.02 930.69 267.24 931.61 267.68C932.53 268.107 933.236 268.693 933.73 269.44C934.236 270.173 934.49 271.027 934.49 272C934.49 273.027 934.203 273.94 933.63 274.74C933.056 275.54 932.23 276.173 931.15 276.64C930.083 277.093 928.803 277.32 927.31 277.32C925.843 277.32 924.57 277.107 923.49 276.68C922.41 276.253 921.563 275.673 920.95 274.94C920.336 274.193 919.976 273.367 919.87 272.46H923.63C923.776 273.047 924.163 273.513 924.79 273.86C925.43 274.207 926.27 274.38 927.31 274.38C928.016 274.38 928.623 274.287 929.13 274.1C929.636 273.9 930.03 273.62 930.31 273.26C930.59 272.9 930.73 272.473 930.73 271.98C930.73 271.513 930.603 271.1 930.35 270.74C930.11 270.38 929.743 270.1 929.25 269.9C928.77 269.7 928.17 269.6 927.45 269.6C926.85 269.6 926.31 269.667 925.83 269.8C925.363 269.933 924.95 270.107 924.59 270.32C924.243 270.533 923.956 270.753 923.73 270.98H920.49L921.75 262Z" fill="black"/>
<path d="M895.525 267.34C895.605 266.18 895.985 265.18 896.665 264.34C897.345 263.487 898.245 262.833 899.365 262.38C900.498 261.913 901.778 261.68 903.205 261.68C904.565 261.68 905.751 261.887 906.765 262.3C907.778 262.713 908.571 263.293 909.145 264.04C909.718 264.787 910.005 265.647 910.005 266.62C910.005 267.38 909.805 268.087 909.405 268.74C909.005 269.38 908.371 270.02 907.505 270.66C906.638 271.3 905.498 271.98 904.085 272.7L899.745 274.98L899.545 274H910.425V277H895.785V274.36L902.225 270.66C903.251 270.073 904.051 269.573 904.625 269.16C905.211 268.733 905.625 268.34 905.865 267.98C906.105 267.62 906.225 267.233 906.225 266.82C906.225 266.393 906.105 266.013 905.865 265.68C905.638 265.347 905.291 265.087 904.825 264.9C904.358 264.713 903.771 264.62 903.065 264.62C902.225 264.62 901.531 264.747 900.985 265C900.438 265.24 900.031 265.567 899.765 265.98C899.498 266.393 899.338 266.847 899.285 267.34H895.525Z" fill="black"/>
<path d="M877.645 277.32C875.952 277.32 874.485 276.993 873.245 276.34C872.005 275.687 871.045 274.78 870.365 273.62C869.685 272.447 869.345 271.073 869.345 269.5C869.345 267.94 869.685 266.573 870.365 265.4C871.045 264.227 872.005 263.313 873.245 262.66C874.485 262.007 875.952 261.68 877.645 261.68C879.325 261.68 880.785 262.007 882.025 262.66C883.265 263.313 884.225 264.227 884.905 265.4C885.585 266.56 885.925 267.927 885.925 269.5C885.925 271.06 885.585 272.427 884.905 273.6C884.225 274.773 883.265 275.687 882.025 276.34C880.785 276.993 879.325 277.32 877.645 277.32ZM877.645 274.24C879.072 274.24 880.178 273.827 880.965 273C881.765 272.173 882.165 271.007 882.165 269.5C882.165 267.993 881.765 266.827 880.965 266C880.178 265.173 879.072 264.76 877.645 264.76C876.218 264.76 875.105 265.173 874.305 266C873.505 266.827 873.105 267.993 873.105 269.5C873.105 271.007 873.505 272.173 874.305 273C875.105 273.827 876.218 274.24 877.645 274.24Z" fill="black"/>
<path d="M844.72 267.34C844.8 266.18 845.18 265.18 845.86 264.34C846.54 263.487 847.44 262.833 848.56 262.38C849.693 261.913 850.973 261.68 852.4 261.68C853.76 261.68 854.947 261.887 855.96 262.3C856.973 262.713 857.767 263.293 858.34 264.04C858.913 264.787 859.2 265.647 859.2 266.62C859.2 267.38 859 268.087 858.6 268.74C858.2 269.38 857.567 270.02 856.7 270.66C855.833 271.3 854.693 271.98 853.28 272.7L848.94 274.98L848.74 274H859.62V277H844.98V274.36L851.42 270.66C852.447 270.073 853.247 269.573 853.82 269.16C854.407 268.733 854.82 268.34 855.06 267.98C855.3 267.62 855.42 267.233 855.42 266.82C855.42 266.393 855.3 266.013 855.06 265.68C854.833 265.347 854.487 265.087 854.02 264.9C853.553 264.713 852.967 264.62 852.26 264.62C851.42 264.62 850.727 264.747 850.18 265C849.633 265.24 849.227 265.567 848.96 265.98C848.693 266.393 848.533 266.847 848.48 267.34H844.72Z" fill="black"/>
<line x1="954" y1="270" x2="1027" y2="270" stroke="black" stroke-width="2"/>
<line x1="752" y1="270" x2="825" y2="270" stroke="black" stroke-width="2"/>
<rect x="1162.5" y="126.5" width="631" height="69" rx="34.5" stroke="black" stroke-width="3"/>
<path fill-rule="evenodd" clip-rule="evenodd" d="M1194.39 149.208H1194.41C1194.66 155.869 1200.01 161.223 1206.68 161.475V161.493C1200.01 161.745 1194.66 167.1 1194.41 173.761H1194.39C1194.14 167.1 1188.78 161.745 1182.12 161.493V161.475C1188.78 161.223 1194.14 155.869 1194.39 149.208Z" fill="#1F1E1E"/>
<path fill-rule="evenodd" clip-rule="evenodd" d="M1255.27 149.208H1255.29C1255.54 155.869 1260.89 161.223 1267.55 161.475V161.493C1260.89 161.745 1255.54 167.1 1255.29 173.761H1255.27C1255.02 167.1 1249.66 161.745 1243 161.493V161.475C1249.66 161.223 1255.02 155.869 1255.27 149.208Z" fill="#1F1E1E"/>
<path fill-rule="evenodd" clip-rule="evenodd" d="M1316.27 149.208H1316.29C1316.54 155.869 1321.89 161.223 1328.55 161.475V161.493C1321.89 161.745 1316.54 167.1 1316.29 173.761H1316.27C1316.02 167.1 1310.66 161.745 1304 161.493V161.475C1310.66 161.223 1316.02 155.869 1316.27 149.208Z" fill="#1F1E1E"/>
<path fill-rule="evenodd" clip-rule="evenodd" d="M1377.27 149.208H1377.29C1377.54 155.869 1382.89 161.223 1389.55 161.475V161.493C1382.89 161.745 1377.54 167.1 1377.29 173.761H1377.27C1377.02 167.1 1371.66 161.745 1365 161.493V161.475C1371.66 161.223 1377.02 155.869 1377.27 149.208Z" fill="#1F1E1E"/>
<path fill-rule="evenodd" clip-rule="evenodd" d="M1438.27 149.208H1438.29C1438.54 155.869 1443.89 161.223 1450.55 161.475V161.493C1443.89 161.745 1438.54 167.1 1438.29 173.761H1438.27C1438.02 167.1 1432.66 161.745 1426 161.493V161.475C1432.66 161.223 1438.02 155.869 1438.27 149.208Z" fill="#1F1E1E"/>
<path fill-rule="evenodd" clip-rule="evenodd" d="M1499.27 149.208H1499.29C1499.54 155.869 1504.89 161.223 1511.55 161.475V161.493C1504.89 161.745 1499.54 167.1 1499.29 173.761H1499.27C1499.02 167.1 1493.66 161.745 1487 161.493V161.475C1493.66 161.223 1499.02 155.869 1499.27 149.208Z" fill="#1F1E1E"/>
<path fill-rule="evenodd" clip-rule="evenodd" d="M1560.27 149.208H1560.29C1560.54 155.869 1565.89 161.223 1572.55 161.475V161.493C1565.89 161.745 1560.54 167.1 1560.29 173.761H1560.27C1560.02 167.1 1554.66 161.745 1548 161.493V161.475C1554.66 161.223 1560.02 155.869 1560.27 149.208Z" fill="#1F1E1E"/>
</svg>
