<svg width="72" height="67" viewBox="0 0 72 67" fill="none" xmlns="http://www.w3.org/2000/svg">
<path d="M25.6385 37.6457H45.4415L71.4728 66.4718H51.2706L25.6385 37.6457ZM35.9392 63.2777C28.8591 63.2777 22.6308 61.9735 17.2541 59.3651C11.9308 56.7566 7.77852 53.1101 4.79743 48.4255C1.86957 43.7409 0.40564 38.2845 0.40564 32.0561C0.40564 25.8278 1.86957 20.3713 4.79743 15.6867C7.77852 11.0021 11.9308 7.35562 17.2541 4.74716C22.6308 2.1387 28.8591 0.834473 35.9392 0.834473C43.0726 0.834473 49.3009 2.1387 54.6243 4.74716C59.9477 7.35562 64.0999 11.0021 67.081 15.6867C70.0621 20.3713 71.5526 25.8278 71.5526 32.0561C71.5526 38.2845 70.0621 43.7409 67.081 48.4255C64.0999 53.1101 59.9477 56.7566 54.6243 59.3651C49.3009 61.9735 43.0726 63.2777 35.9392 63.2777ZM35.9392 48.5054C39.8253 48.5054 43.179 47.8399 46.0004 46.5091C48.8218 45.1782 50.9778 43.2884 52.4683 40.8397C54.0121 38.3909 54.784 35.4631 54.784 32.0561C54.784 28.6491 54.0121 25.7213 52.4683 23.2725C50.9778 20.8238 48.8218 18.934 46.0004 17.6031C43.179 16.2723 39.8253 15.6069 35.9392 15.6069C32.1064 15.6069 28.7793 16.2723 25.9579 17.6031C23.1365 18.934 20.9539 20.8238 19.4101 23.2725C17.8663 25.7213 17.0944 28.6491 17.0944 32.0561C17.0944 35.4631 17.8663 38.3909 19.4101 40.8397C20.9539 43.2884 23.1365 45.1782 25.9579 46.5091C28.7793 47.8399 32.1064 48.5054 35.9392 48.5054Z" fill="#778948"/>
</svg>
