<svg width="32" height="32" viewBox="0 0 32 32" fill="none" xmlns="http://www.w3.org/2000/svg">
<path d="M16.0003 15.1841C14.7923 12.8361 11.5043 8.4588 8.44699 6.30147C5.51766 4.2348 4.40166 4.5908 3.66966 4.92413C2.82166 5.30413 2.66699 6.6068 2.66699 7.3708C2.66699 8.13747 3.08699 13.6495 3.36033 14.5708C4.26699 17.6108 7.48566 18.6375 10.4537 18.3081C6.10699 18.9521 2.24433 20.5348 7.30699 26.1721C12.8777 31.9388 14.9417 24.9361 16.0003 21.3855C17.059 24.9361 18.2777 31.6868 24.5923 26.1721C29.3337 21.3855 25.895 18.9521 21.5483 18.3081C24.515 18.6375 27.735 17.6108 28.6403 14.5708C28.9137 13.6508 29.3337 8.13747 29.3337 7.37213C29.3337 6.60547 29.179 5.30547 28.331 4.92147C27.599 4.5908 26.483 4.23213 23.5537 6.2988C20.4963 8.46013 17.207 12.8375 16.0003 15.1841Z" />
</svg>
