<svg width="32" height="32" viewBox="0 0 32 32" fill="none" xmlns="http://www.w3.org/2000/svg">
<path fill-rule="evenodd" clip-rule="evenodd" d="M2.81802 5.81802C3.66193 4.97411 4.80653 4.5 6 4.5H26C27.1935 4.5 28.3381 4.97411 29.182 5.81802C30.0259 6.66193 30.5 7.80653 30.5 9V9.32383C30.5 9.32389 30.5 9.32378 30.5 9.32383C30.5 9.32411 30.5 9.32456 30.5 9.32484V23C30.5 24.1935 30.0259 25.3381 29.182 26.182C28.3381 27.0259 27.1935 27.5 26 27.5H6C4.80653 27.5 3.66193 27.0259 2.81802 26.182C1.97411 25.3381 1.5 24.1935 1.5 23V9.32616V9C1.5 7.80653 1.97411 6.66193 2.81802 5.81802ZM4.5 9V9.32533C4.5 9.32544 4.5 9.32522 4.5 9.32533C4.50003 9.58132 4.56557 9.83353 4.69038 10.057C4.81525 10.2806 4.99528 10.4685 5.21333 10.6028L15.2126 16.7544C15.4492 16.9001 15.7222 16.9777 16 16.9777C16.2778 16.9777 16.5501 16.9005 16.7867 16.7548L26.7867 10.6015C27.0045 10.4672 27.1849 10.2791 27.3096 10.0557C27.4344 9.8322 27.5 9.58049 27.5 9.3245C27.5 9.32439 27.5 9.32461 27.5 9.3245V9C27.5 8.60218 27.342 8.22064 27.0607 7.93934C26.7794 7.65804 26.3978 7.5 26 7.5H6C5.60218 7.5 5.22064 7.65804 4.93934 7.93934C4.65804 8.22064 4.5 8.60218 4.5 9ZM27.5 13.685L18.36 19.3092C18.3598 19.3093 18.3602 19.3091 18.36 19.3092C17.6505 19.746 16.8332 19.9777 16 19.9777C15.1666 19.9777 14.3496 19.7462 13.64 19.3092L4.5 13.6862V23C4.5 23.3978 4.65804 23.7794 4.93934 24.0607C5.22064 24.342 5.60218 24.5 6 24.5H26C26.3978 24.5 26.7794 24.342 27.0607 24.0607C27.342 23.7794 27.5 23.3978 27.5 23V13.685Z" />
</svg>
