<svg width="32" height="32" viewBox="0 0 32 32" fill="none" xmlns="http://www.w3.org/2000/svg">
<path fill-rule="evenodd" clip-rule="evenodd" d="M7.26714 6.16433C9.32981 3.96566 12.3205 2.66699 16.0231 2.66699C22.1098 2.66699 26.1458 6.17499 27.4231 11.0363C27.513 11.3785 27.4632 11.7423 27.2848 12.0477C27.1064 12.3531 26.8139 12.5752 26.4718 12.665C26.1297 12.7548 25.7659 12.705 25.4604 12.5266C25.155 12.3482 24.933 12.0558 24.8431 11.7137C23.8738 8.02966 20.9018 5.33366 16.0218 5.33366C12.9738 5.33366 10.7151 6.38566 9.21381 7.98699C7.69914 9.60299 6.85514 11.8843 6.85514 14.5003V17.5003C6.85514 20.1163 7.69914 22.3977 9.21381 24.0123C10.7151 25.6163 12.9738 26.667 16.0218 26.667C18.2285 26.667 19.9791 26.155 21.3231 25.327C22.6765 24.4937 23.4831 23.3883 23.7098 22.1203C23.9698 20.659 23.6498 19.6563 23.0991 18.9323C22.7971 18.5428 22.4299 18.2085 22.0138 17.9443C21.8338 18.943 21.5125 19.8857 21.0271 20.6243C19.2378 23.343 15.8165 23.5763 13.5605 22.6763C12.3391 22.1897 11.2925 20.8577 10.9671 19.4297C10.7696 18.6112 10.8354 17.7512 11.1551 16.9723C11.5085 16.1243 12.1631 15.4017 13.0951 14.8523C14.0178 14.307 15.3885 14.0563 16.7471 14.019C17.5658 13.9963 18.4538 14.051 19.3471 14.1963C19.1605 13.3297 18.8445 12.683 18.4885 12.351C17.8431 11.751 16.7738 11.3283 15.7018 11.335C14.6658 11.343 13.7871 11.7417 13.2618 12.5817C13.0744 12.8815 12.7755 13.0947 12.431 13.1742C12.0864 13.2537 11.7243 13.1931 11.4245 13.0057C11.1246 12.8182 10.9115 12.5194 10.832 12.1748C10.7524 11.8302 10.8131 11.4682 11.0005 11.1683C12.1165 9.38433 13.9551 8.68166 15.6845 8.66832C17.3778 8.65632 19.1218 9.29766 20.3058 10.399C21.5031 11.5137 22.0178 13.3417 22.1511 15.0043C23.3165 15.5123 24.4178 16.2577 25.2245 17.3203C26.2658 18.6937 26.7138 20.4643 26.3351 22.5883C25.9485 24.7537 24.5818 26.4523 22.7218 27.5977C20.8978 28.7203 18.6471 29.3337 16.0218 29.3337C12.3205 29.3337 9.32848 28.035 7.26848 25.8363C5.22048 23.6523 4.18848 20.6843 4.18848 17.5003V14.5003C4.18848 11.3163 5.22048 8.34833 7.26848 6.16433H7.26714ZM19.4671 16.9337C18.5975 16.7461 17.7085 16.6629 16.8191 16.6857C15.6311 16.7177 14.7978 16.943 14.4498 17.1483C13.9378 17.451 13.7165 17.759 13.6178 17.9977C13.5125 18.2653 13.4948 18.5593 13.5671 18.8377C13.7298 19.5523 14.2671 20.0883 14.5485 20.199C16.0498 20.799 17.9285 20.4817 18.7991 19.159C19.1125 18.6817 19.3618 17.879 19.4658 16.9337H19.4671Z" />
</svg>
